<svg height="39" width="34" xmlns="http://www.w3.org/2000/svg" viewBox="0 0 34 39"><path fill="#fff" fill-rule="evenodd" d="M33.24.9c.09.07 0 .35-.22.62-.02.04-.05.07-.08.1-.05.06.02.83.06 1.74.05 1.13.01 2.56-.26 4.21-.02.16-.05.31-.07.46-.03.12-.04.23-.07.35-.11.55-.22 1.05-.33 1.46-.22.8-.69 2.13-1.04 2.97-1.03 2.47-2.6 5.17-4.97 7.96-.6.7-.89 1.95-.73 2.84.55 3.05.94 9.69-4.99 13.21-.79.47-1.37.02-1.36-.89.06-4-1.43-13.95-17.75-13.65-.92.01-1.48-.65-1.12-1.49 1.15-2.66 4.32-7.77 11.74-7.52.92.03 2-.52 2.49-1.29 1.29-2.02 4.08-5.76 8.48-8.44 2.73-1.69 5.22-2.41 6.78-2.72.91-.18 1.68-.26 1.71-.31.02-.02.04-.05.06-.08.22-.27.47-.43.57-.36l.07.05c.04.03.31-.02.6-.11.3-.09.49.05.42.32-.06.27-.08.5-.05.53l.06.04zm-9.67 10.53c-1.38-.78-3.08-.49-4.09.6-.14.15-.26.32-.37.51-.9 1.51-.35 3.45 1.23 4.34 1.37.78 3.07.5 4.08-.6.14-.15.27-.32.38-.5.89-1.51.34-3.46-1.23-4.35zM7.69 25.33c.78-.48 1.27-.07.91.77-.79 1.91-2.48 5.09-5.41 6.82-.79.47-1.31 0-.96-.84.76-1.82 2.4-4.83 5.46-6.75zm3.44 2.63c.79-.46 1.27-.05.95.8-.97 2.58-3.37 7.67-7.84 10.09-.81.44-1.33-.03-1.02-.88.92-2.46 3.21-7.24 7.91-10.01zm3.44 2.66c.78-.48 1.26-.07.91.77-.79 1.91-2.49 5.1-5.42 6.83-.79.47-1.31-.01-.96-.85.76-1.82 2.4-4.83 5.47-6.75z"/></svg>49 10.94 19.48 12.03 C 19.34 12.18 19.22 12.35 19.11 12.54 C 18.21 14.05 18.76 15.99 20.34 16.88 C 21.71 17.66 23.41 17.38 24.42 16.28 C 24.56 16.13 24.69 15.96 24.8 15.78 C 25.69 14.27 25.14 12.32 23.57 11.43 Z M 7.69 25.33 C 8.47 24.85 8.96 25.26 8.6 26.1 C 7.81 28.01 6.12 31.19 3.19 32.92 C 2.4 33.39 1.88 32.92 2.23 32.08 C 2.99 30.26 4.63 27.25 7.69 25.33 Z M 11.13 27.96 C 11.92 27.5 12.4 27.91 12.08 28.76 C 11.11 31.34 8.71 36.43 4.24 38.85 C 3.43 39.29 2.91 38.82 3.22 37.97 C 4.14 35.51 6.43 30.73 11.13 27.96 Z M 14.57 30.62 C 15.35 30.14 15.83 30.55 15.48 31.39 C 14.69 33.3 12.99 36.49 10.06 38.22 C 9.27 38.69 8.75 38.21 9.1 37.37 C 9.86 35.55 11.5 32.54 14.57 30.62 Z" />
</svg>